<svg width="113" height="93" viewBox="0 0 113 93" fill="none" xmlns="http://www.w3.org/2000/svg">
<path fill-rule="evenodd" clip-rule="evenodd" d="M0.0703125 5.22098L4.83621 0.455078L8.37175 3.99061L3.60585 8.75651L0.0703125 5.22098ZM0.0703125 26.0706L4.83621 21.3047L8.37175 24.8402L3.60585 29.6061L0.0703125 26.0706ZM4.83621 42.1528L0.0703125 46.9187L3.60585 50.4543L8.37175 45.6884L4.83621 42.1528ZM0.0703125 67.7688L4.83621 63.0029L8.37175 66.5385L3.60585 71.3044L0.0703125 67.7688ZM4.83621 83.8525L0.0703125 88.6184L3.60585 92.154L8.37175 87.3881L4.83621 83.8525ZM26.1328 5.22098L30.8987 0.455078L34.4342 3.99061L29.6683 8.75651L26.1328 5.22098ZM30.8987 21.3047L26.1328 26.0706L29.6683 29.6061L34.4342 24.8402L30.8987 21.3047ZM26.1328 46.9187L30.8987 42.1528L34.4342 45.6884L29.6683 50.4543L26.1328 46.9187ZM30.8987 63.0029L26.1328 67.7688L29.6683 71.3044L34.4342 66.5385L30.8987 63.0029ZM26.1328 88.6184L30.8987 83.8525L34.4342 87.3881L29.6683 92.154L26.1328 88.6184ZM56.9612 0.455078L52.1953 5.22098L55.7308 8.75651L60.4967 3.99061L56.9612 0.455078ZM52.1934 26.0706L56.9593 21.3047L60.4948 24.8402L55.7289 29.6061L52.1934 26.0706ZM56.9593 42.1528L52.1934 46.9187L55.7289 50.4543L60.4948 45.6884L56.9593 42.1528ZM52.1953 67.7688L56.9612 63.0029L60.4967 66.5385L55.7308 71.3044L52.1953 67.7688ZM56.9612 83.8525L52.1953 88.6184L55.7308 92.154L60.4967 87.3881L56.9612 83.8525ZM78.2539 5.22098L83.0198 0.455078L86.5553 3.99061L81.7894 8.75651L78.2539 5.22098ZM83.0198 21.3047L78.2539 26.0706L81.7894 29.6061L86.5553 24.8402L83.0198 21.3047ZM78.2539 46.9187L83.0198 42.1528L86.5553 45.6884L81.7894 50.4543L78.2539 46.9187ZM83.0198 63.0029L78.2539 67.7688L81.7894 71.3044L86.5553 66.5385L83.0198 63.0029ZM78.2539 88.6184L83.0198 83.8525L86.5553 87.3881L81.7894 92.154L78.2539 88.6184ZM109.08 0.455078L104.314 5.22098L107.85 8.75651L112.616 3.99061L109.08 0.455078ZM104.314 26.0706L109.08 21.3047L112.616 24.8402L107.85 29.6061L104.314 26.0706ZM109.08 42.1528L104.314 46.9187L107.85 50.4543L112.616 45.6884L109.08 42.1528ZM104.314 67.7688L109.08 63.0029L112.616 66.5385L107.85 71.3044L104.314 67.7688ZM109.08 83.8525L104.314 88.6184L107.85 92.154L112.616 87.3881L109.08 83.8525Z" fill="#003559"/>
</svg>
